# xmcd
#
# Track frame offsets: 
#        182
#        15452
#        29665
#        43375
#        58607
#        72410
#        86950
#        103495
#        122362
#        144562
#        160040
#
# Disc length: 2313 seconds
#
# Revision: 2
# Processed by: cddbd v1.5PL3 Copyright (c) Steve Scherf et al.
# Submitted via: ExactAudioCopy v0.95a3
#
DISCID=9e09070b
DTITLE=Hal Ketchum - I Saw The Light
DYEAR=1998
DGENRE=Country
TTITLE0=A Girl Like You
TTITLE1=I Saw The Light
TTITLE2=Tell Me
TTITLE3=Long Way Down
TTITLE4=When Love Looks Back At You
TTITLE5=Love Me, Love Me Not
TTITLE6=A Wave Of Your Hand
TTITLE7=The Unforgiven
TTITLE8=Too Many Memories
TTITLE9=For Tonight
TTITLE10=You'll Never Hurt That Way Again
EXTD=
EXTT0=
EXTT1=
EXTT2=
EXTT3=
EXTT4=
EXTT5=
EXTT6=
EXTT7=
EXTT8=
EXTT9=
EXTT10=
PLAYORDER=
